<svg width="48" height="48" viewBox="0 0 48 48" fill="none" xmlns="http://www.w3.org/2000/svg">
<rect width="48" height="48" rx="24" fill="#437EF7"/>
<path d="M31.0572 22.2753L22.8541 30.4784C21.5989 28.2463 19.7528 26.4003 17.5208 25.145L27.8248 14.841C28.3528 14.3129 28.6169 14.0489 28.9213 13.95C29.1891 13.863 29.4775 13.863 29.7453 13.95C30.0498 14.0489 30.3138 14.313 30.8418 14.841L33.1582 17.1573C33.6862 17.6853 33.9502 17.9494 34.0491 18.2538C34.1361 18.5216 34.1361 18.81 34.0491 19.0778C33.9502 19.3823 33.6862 19.6463 33.1582 20.1743L32.9428 20.3897L35.1381 22.5849C35.9191 23.366 35.9191 24.6323 35.1381 25.4134L31.6095 28.942C31.0888 29.4627 30.2446 29.4627 29.7239 28.942C29.2032 28.4213 29.2032 27.577 29.7239 27.0563L32.781 23.9991L31.0572 22.2753Z" fill="white"/>
<path d="M15.6815 27.6214L14.6826 30.6181C14.2483 31.9209 14.0312 32.5723 14.1856 33.0055C14.3201 33.3824 14.6167 33.6791 14.9937 33.8135C15.4268 33.968 16.0782 33.7508 17.381 33.3166L20.3778 32.3177C20.5288 32.2673 20.648 32.2276 20.7477 32.1923C19.6637 30.0661 17.9331 28.3354 15.8068 27.2514C15.7716 27.3511 15.7318 27.4704 15.6815 27.6214Z" fill="white"/>
</svg>
