<svg width="48" height="48" viewBox="0 0 48 48" fill="none" xmlns="http://www.w3.org/2000/svg">
<rect width="48" height="48" rx="24" fill="#437EF7"/>
<path fill-rule="evenodd" clip-rule="evenodd" d="M24 9.33398C15.8998 9.33398 9.33334 15.9005 9.33334 24.0007C9.33334 32.1008 15.8998 38.6673 24 38.6673C32.1002 38.6673 38.6667 32.1008 38.6667 24.0007C38.6667 15.9005 32.1002 9.33398 24 9.33398ZM30.8409 17.1598C29.2953 15.6143 26.7896 15.6143 25.244 17.1598C24.7233 17.6805 24.7233 18.5247 25.244 19.0454C25.7647 19.5661 26.609 19.5661 27.1297 19.0454C27.6338 18.5413 28.4511 18.5413 28.9552 19.0454C29.4594 19.5495 29.4594 20.3669 28.9552 20.871L25.244 24.5822C24.951 24.8753 24.5533 24.9988 24.1674 24.95C23.4368 24.8575 22.7696 25.3748 22.6772 26.1054C22.5848 26.836 23.1021 27.5031 23.8326 27.5955C25.0011 27.7434 26.2291 27.3684 27.1297 26.4678L30.8409 22.7566C32.3864 21.2111 32.3864 18.7053 30.8409 17.1598ZM24.1674 20.4058C22.9989 20.2579 21.7709 20.6329 20.8704 21.5335L17.1591 25.2447C15.6136 26.7902 15.6136 29.296 17.1591 30.8415C18.7047 32.387 21.2104 32.387 22.756 30.8415C23.2767 30.3208 23.2767 29.4766 22.756 28.9559C22.2353 28.4352 21.3911 28.4352 20.8704 28.9559C20.3662 29.46 19.5489 29.46 19.0448 28.9559C18.5406 28.4518 18.5406 27.6344 19.0448 27.1303L22.756 23.4191C23.049 23.126 23.4467 23.0025 23.8326 23.0513C24.5632 23.1438 25.2304 22.6265 25.3228 21.8959C25.4152 21.1653 24.8979 20.4982 24.1674 20.4058Z" fill="white"/>
</svg>
