<svg width="48" height="48" viewBox="0 0 48 48" fill="none" xmlns="http://www.w3.org/2000/svg">
<rect width="48" height="48" rx="24" fill="#437EF7"/>
<path d="M18.2768 16.3906C18.5267 15.8684 18.6667 15.2835 18.6667 14.666C18.6667 12.4569 16.8758 10.666 14.6667 10.666C12.4575 10.666 10.6667 12.4569 10.6667 14.666C10.6667 16.8752 12.4575 18.666 14.6667 18.666C15.2842 18.666 15.869 18.5261 16.3912 18.2762L18.4379 20.3228C17.7398 21.3767 17.3333 22.6406 17.3333 23.9993C17.3333 25.3581 17.7398 26.622 18.4379 27.6759L16.6907 29.423C16.4704 29.3641 16.2389 29.3327 16 29.3327C14.5272 29.3327 13.3333 30.5266 13.3333 31.9993C13.3333 33.4721 14.5272 34.666 16 34.666C17.4728 34.666 18.6667 33.4721 18.6667 31.9993C18.6667 31.7605 18.6353 31.5289 18.5763 31.3086L20.3235 29.5615C21.3774 30.2595 22.6412 30.666 24 30.666C25.3588 30.666 26.6226 30.2595 27.6765 29.5615L29.7232 31.6081C29.4733 32.1303 29.3333 32.7152 29.3333 33.3327C29.3333 35.5418 31.1242 37.3327 33.3333 37.3327C35.5425 37.3327 37.3333 35.5418 37.3333 33.3327C37.3333 31.1235 35.5425 29.3327 33.3333 29.3327C32.7158 29.3327 32.131 29.4726 31.6088 29.7225L29.5621 27.6759C30.2602 26.622 30.6667 25.3581 30.6667 23.9993C30.6667 22.6406 30.2602 21.3767 29.5621 20.3228L31.3093 18.5757C31.5296 18.6346 31.7611 18.666 32 18.666C33.4728 18.666 34.6667 17.4721 34.6667 15.9993C34.6667 14.5266 33.4728 13.3327 32 13.3327C30.5272 13.3327 29.3333 14.5266 29.3333 15.9993C29.3333 16.2382 29.3647 16.4698 29.4237 16.6901L27.6765 18.4372C26.6226 17.7392 25.3588 17.3327 24 17.3327C22.6412 17.3327 21.3774 17.7392 20.3235 18.4372L18.2768 16.3906Z" fill="white"/>
</svg>
