<svg width="48" height="48" viewBox="0 0 48 48" fill="none" xmlns="http://www.w3.org/2000/svg">
<rect width="48" height="48" rx="24" fill="#437EF7"/>
<path d="M25.3333 19.8326C27.6336 19.2406 29.3333 17.1524 29.3333 14.6673C29.3333 11.7218 26.9455 9.33398 24 9.33398C21.0545 9.33398 18.6667 11.7218 18.6667 14.6673C18.6667 17.1524 20.3664 19.2406 22.6667 19.8326V22.6673H18.6667C16.4575 22.6673 14.6667 24.4582 14.6667 26.6673V28.1687C12.3664 28.7607 10.6667 30.8489 10.6667 33.334C10.6667 36.2795 13.0545 38.6673 16 38.6673C18.9455 38.6673 21.3333 36.2795 21.3333 33.334C21.3333 30.8489 19.6336 28.7607 17.3333 28.1687V26.6673C17.3333 25.9309 17.9303 25.334 18.6667 25.334H29.3333C30.0697 25.334 30.6667 25.9309 30.6667 26.6673V28.1687C28.3664 28.7607 26.6667 30.8489 26.6667 33.334C26.6667 36.2795 29.0545 38.6673 32 38.6673C34.9455 38.6673 37.3333 36.2795 37.3333 33.334C37.3333 30.8489 35.6336 28.7607 33.3333 28.1687V26.6673C33.3333 24.4582 31.5425 22.6673 29.3333 22.6673H25.3333V19.8326Z" fill="white"/>
</svg>
