<svg width="48" height="48" viewBox="0 0 48 48" fill="none" xmlns="http://www.w3.org/2000/svg">
<rect width="48" height="48" rx="24" fill="#437EF7"/>
<path d="M32 20.0007C34.9455 20.0007 37.3333 17.6128 37.3333 14.6673C37.3333 11.7218 34.9455 9.33398 32 9.33398C29.0545 9.33398 26.6667 11.7218 26.6667 14.6673C26.6667 15.1703 26.7363 15.657 26.8664 16.1183L19.7887 20.247C18.8222 19.2715 17.4817 18.6673 16 18.6673C13.0545 18.6673 10.6667 21.0551 10.6667 24.0007C10.6667 26.9462 13.0545 29.334 16 29.334C17.4817 29.334 18.8222 28.7298 19.7887 27.7543L26.8664 31.883C26.7363 32.3443 26.6667 32.831 26.6667 33.334C26.6667 36.2795 29.0545 38.6673 32 38.6673C34.9455 38.6673 37.3333 36.2795 37.3333 33.334C37.3333 30.3885 34.9455 28.0006 32 28.0006C30.5183 28.0006 29.1778 28.6048 28.2113 29.5803L21.1336 25.4516C21.2637 24.9903 21.3333 24.5036 21.3333 24.0007C21.3333 23.4977 21.2637 23.011 21.1336 22.5497L28.2113 18.421C29.1778 19.3965 30.5183 20.0007 32 20.0007Z" fill="white"/>
</svg>
