<svg width="20" height="20" viewBox="0 0 20 20" fill="none" xmlns="http://www.w3.org/2000/svg">
<path d="M0 1.43266C0 0.641875 0.662031 0 1.47812 0H18.5219C19.3383 0 20 0.641875 20 1.43266V18.5676C20 19.3586 19.3383 20 18.5219 20H1.47812C0.662109 20 0 19.3587 0 18.5678V1.43242V1.43266Z" fill="#272D37"/>
<path d="M6.07767 16.7371V7.73305H3.08485V16.7371H6.07798H6.07767ZM4.58188 6.50391C5.62532 6.50391 6.27493 5.8125 6.27493 4.94844C6.2554 4.06469 5.62532 3.39258 4.60173 3.39258C3.57743 3.39258 2.90845 4.06469 2.90845 4.94836C2.90845 5.81242 3.55782 6.50383 4.56228 6.50383H4.58165L4.58188 6.50391ZM7.73423 16.7371H10.7268V11.7094C10.7268 11.4406 10.7463 11.1712 10.8254 10.9792C11.0416 10.4413 11.5341 9.88453 12.361 9.88453C13.4437 9.88453 13.877 10.7102 13.877 11.9207V16.7371H16.8695V11.5745C16.8695 8.80891 15.3933 7.52195 13.4243 7.52195C11.81 7.52195 11.101 8.42422 10.7071 9.03875H10.727V7.73336H7.73438C7.77345 8.57805 7.73415 16.7374 7.73415 16.7374L7.73423 16.7371Z" fill="white"/>
</svg>
